<svg xmlns="http://www.w3.org/2000/svg" viewBox="0 0 500 88.4"><defs><style>.cls-1{fill:#2c3e50;}.cls-2{fill:#61a8c4;}.cls-3{fill:#ea622d;}</style></defs><title>cozilo</title><g id="Layer_2" data-name="Layer 2"><g id="Layer_1-2" data-name="Layer 1"><path class="cls-1" d="M59.52,24a18.21,18.21,0,0,0-6.71-5.11,22.36,22.36,0,0,0-9.21-1.78,23,23,0,0,0-17.41,7.67,26.35,26.35,0,0,0-5.1,8.61A30.91,30.91,0,0,0,19.25,44.2a30.77,30.77,0,0,0,1.84,10.87,26.92,26.92,0,0,0,5.05,8.55,22.8,22.8,0,0,0,7.54,5.65,21.77,21.77,0,0,0,9.33,2,20.85,20.85,0,0,0,10.1-2.38,20.23,20.23,0,0,0,7.25-6.65L75.8,73.78a32.08,32.08,0,0,1-13.55,11A41.8,41.8,0,0,1,45.38,88.4a51.76,51.76,0,0,1-18.17-3.09,41.61,41.61,0,0,1-14.38-8.85,40.2,40.2,0,0,1-9.45-14A47.69,47.69,0,0,1,0,44.2,47.6,47.6,0,0,1,3.38,25.91a40.24,40.24,0,0,1,9.45-14A41.61,41.61,0,0,1,27.21,3.09,51.76,51.76,0,0,1,45.38,0a44.15,44.15,0,0,1,7.43.66,40,40,0,0,1,7.61,2.07,34.41,34.41,0,0,1,7.18,3.8,29.08,29.08,0,0,1,6.18,5.83Z"/><path class="cls-2" d="M153.43,63.62a24,24,0,0,1-8.25,5.65,29.64,29.64,0,0,1-21.51,0,24.16,24.16,0,0,1-8.26-5.65,24.92,24.92,0,0,1-5.28-8.55,30.77,30.77,0,0,1-1.84-10.87,30.91,30.91,0,0,1,1.84-10.81,24.81,24.81,0,0,1,5.28-8.61,24.16,24.16,0,0,1,8.26-5.65,29.64,29.64,0,0,1,21.51,0,24,24,0,0,1,8.25,5.65,23.68,23.68,0,0,1,4,5.73H178a40.87,40.87,0,0,0-1.59-4.6,40.08,40.08,0,0,0-9.44-14A41.61,41.61,0,0,0,152.6,3.09a55,55,0,0,0-36.35,0,41.61,41.61,0,0,0-14.38,8.85,40.08,40.08,0,0,0-9.44,14A47.42,47.42,0,0,0,89,44.2a47.5,47.5,0,0,0,3.39,18.3,40,40,0,0,0,9.44,14,41.61,41.61,0,0,0,14.38,8.85,55,55,0,0,0,36.35,0A41.61,41.61,0,0,0,167,76.46a40,40,0,0,0,9.44-14A41.74,41.74,0,0,0,178,57.89H157.46A24.15,24.15,0,0,1,153.43,63.62Z"/><path class="cls-2" d="M186.78,36.73H167.17a33.06,33.06,0,0,1,0,14.94h19.6a56.05,56.05,0,0,0,0-14.94Z"/><path class="cls-3" d="M421,44.2a32.32,32.32,0,0,1,.86-7.47H402.26a56.05,56.05,0,0,0,0,14.94h19.6A32.62,32.62,0,0,1,421,44.2Z"/><path class="cls-3" d="M496.61,25.91a40.08,40.08,0,0,0-9.44-14,41.61,41.61,0,0,0-14.38-8.85,55,55,0,0,0-36.35,0,41.61,41.61,0,0,0-14.38,8.85,40.08,40.08,0,0,0-9.44,14,40.87,40.87,0,0,0-1.59,4.6H431.6a23.65,23.65,0,0,1,12.26-11.38,29.64,29.64,0,0,1,21.51,0,24,24,0,0,1,8.25,5.65,24.69,24.69,0,0,1,5.29,8.61,30.91,30.91,0,0,1,1.84,10.81,30.77,30.77,0,0,1-1.84,10.87,24.8,24.8,0,0,1-5.29,8.55,24,24,0,0,1-8.25,5.65,29.64,29.64,0,0,1-21.51,0,23.82,23.82,0,0,1-12.28-11.38H411a41.74,41.74,0,0,0,1.59,4.61,40,40,0,0,0,9.44,14,41.61,41.61,0,0,0,14.38,8.85,55,55,0,0,0,36.35,0,41.61,41.61,0,0,0,14.38-8.85,40,40,0,0,0,9.44-14A47.5,47.5,0,0,0,500,44.2,47.42,47.42,0,0,0,496.61,25.91Z"/><path class="cls-1" d="M198.65,65.61l39.67-47.07H197.21V2.14h63.56V14a12.64,12.64,0,0,1-2.9,8.07L219,69.15H262.2V86.26H195.66V73.78A12.65,12.65,0,0,1,198.65,65.61Z"/><path class="cls-1" d="M290.78,2.14h18.53V86.26H290.78Z"/><path class="cls-1" d="M338.78,2.14h18.53v67h38.56V86.26H347.23a8.45,8.45,0,0,1-8.45-8.45Z"/></g></g></svg>